<svg width="40" height="40" viewBox="0 0 64 64" fill="none" xmlns="http://www.w3.org/2000/svg">
  <ellipse cx="32" cy="32" rx="30" ry="20" fill="#FFDB6E" />
  <path d="M2 32c0-6.6 3.2-12.5 8.4-16.1l3.1 3.1C7.2 21.1 4 26.9 4 32c0 6.6 3.2 12.5 8.4 16.1l-3.1 3.1C3.2 44.5 2 38.6 2 32z" fill="#FFBC5E"/>
  <path d="M62 32c0 6.6-3.2 12.5-8.4 16.1l-3.1-3.1C56.8 42.9 60 37.1 60 32c0-6.6-3.2-12.5-8.4-16.1l3.1-3.1C58.8 19.5 62 25.4 62 32z" fill="#FFBC5E"/>
  <path d="M32 2c6.6 0 12.5 3.2 16.1 8.4l-3.1 3.1C37.1 7.2 32 4 32 4S26.9 7.2 24.9 13.5l-3.1-3.1C19.5 5.2 25.4 2 32 2z" fill="#FFBC5E"/>
  <path d="M32 62c-6.6 0-12.5-3.2-16.1-8.4l3.1-3.1C26.9 56.8 32 60 32 60s5.1-3.2 7.9-9.5l3.1 3.1C38.4 58.8 32 62 32 62z" fill="#FFBC5E"/>
</svg>


